# xmcd CD database file
#
# Track frame offsets:
#	150
#	23560
#	52464
#	71885
#	101921
#
# Disc length: 1637 seconds
#
# Revision: 0
# Processed by: cddbd v1.5.1PL0 Copyright (c) Steve Scherf et al.
# Submitted via: CDex 1.51
#
DISCID=49066305
DTITLE=Geoff Peters Trio - Geoff Peters Trio
DYEAR=2004
DGENRE=Jazz
TTITLE0=Lullaby
TTITLE1=Maiden Voyage
TTITLE2=Dream A Little Dream
TTITLE3=Cantaloupe Island
TTITLE4=Plan 251
EXTD=YEAR: 2004
EXTT0=
EXTT1=
EXTT2=
EXTT3=
EXTT4=
PLAYORDER=
